PathFileType	4	(X/Y/Z)	Run_500 01
DataRate	CameraRate	NumFrames	NumMarkers	Units	OrigDataRate	OrigDataStartFrame	OrigNumFrames
120	120	4	42	mm	120	355	128
Frame#	Time	RASI			LPSI			RPSI			RTH3			LTH1			LTH2			LTH3			RTB1			RTB2			RTB3			LTB1			LTB2			LTB3			RCAL			RTOE			RMT5			LCAL			LTOE			LMT5			LACR			RACR			CLAV			C7			RUA1			RUA2			RUA3			RLEL			LUA1			LUA2			LUA3			LLEL			LMEL			RFAsuperior			RFAradius			RFAulna			LFAsuperior			LFAradius			LFAulna			LASI			RTH1			RMEL			RTH2		
		X1	Y1	Z1	X2	Y2	Z2	X3	Y3	Z3	X4	Y4	Z4	X5	Y5	Z5	X6	Y6	Z6	X7	Y7	Z7	X8	Y8	Z8	X9	Y9	Z9	X10	Y10	Z10	X11	Y11	Z11	X12	Y12	Z12	X13	Y13	Z13	X14	Y14	Z14	X15	Y15	Z15	X16	Y16	Z16	X17	Y17	Z17	X18	Y18	Z18	X19	Y19	Z19	X20	Y20	Z20	X21	Y21	Z21	X22	Y22	Z22	X23	Y23	Z23	X24	Y24	Z24	X25	Y25	Z25	X26	Y26	Z26	X27	Y27	Z27	X28	Y28	Z28	X29	Y29	Z29	X30	Y30	Z30	X31	Y31	Z31	X32	Y32	Z32	X33	Y33	Z33	X34	Y34	Z34	X35	Y35	Z35	X36	Y36	Z36	X37	Y37	Z37	X38	Y38	Z38	X39	Y39	Z39	X40	Y40	Z40	X41	Y41	Z41	X42	Y42	Z42	

355	  2.958333	960.548095	965.652355	-199.603704	825.763983	1001.391428	-384.272205	800.589236	1004.412067	-287.332476	1025.770735	569.418183	-215.175561	930.738167	772.184213	-497.512922	966.911515	657.131685	-483.008617	888.197692	557.483344	-471.254701	1103.419806	362.377784	-300.598664	1062.382220	301.246376	-240.196636	1067.682831	242.367982	-312.420528	775.642628	444.851719	-403.621516	719.567770	521.366533	-467.067501	621.536506	519.669908	-398.785913	936.754361	102.647590	-325.509454	1144.322475	 71.061686	-350.474067	1122.581816	 61.624058	-254.894802	544.576885	658.622135	-378.716447	427.574275	486.178852	-383.610422	418.214615	521.951349	-467.523842	995.422398	1429.121760	-496.365868	911.793634	1424.892065	-106.603825	1002.948565	1419.598283	-268.835346	888.005881	1483.133410	-330.472260	820.095981	1310.934920	-62.194456	753.028161	1323.846789	-95.765422	757.424293	1248.259155	-41.044492	706.470085	1197.725186	-26.043527	935.647037	1309.678168	-567.854991	861.811532	1281.588654	-580.934218	916.768477	1220.602405	-582.853438	862.292163	1163.862643	-620.819543	801.910934	1173.172437	-557.128542	783.923133	1094.783066	-36.709207	842.137852	1004.134196	-100.292505	804.872800	970.884216	-49.960913	953.881344	1092.308980	-559.058286	1009.018267	1073.037850	-444.783783	1018.454682	1025.450268	-493.825783	993.608076	962.913738	-429.891275	926.105765	803.355428	-145.139805	683.196736	1184.301458	-104.724765	 -0.000000	 -0.000000	  0.000000	
356	  2.966667	955.991349	960.322846	-199.337879	821.617621	995.784178	-385.350625	795.961634	1000.726782	-288.242401	1019.437658	565.351656	-213.681758	937.330548	766.745080	-496.988864	980.404627	653.920656	-483.199433	907.552969	550.709648	-472.779709	1084.903765	358.414222	-302.755344	1042.244155	300.472842	-240.136738	1041.309706	240.662570	-313.539699	802.363549	440.170727	-403.257274	747.145182	515.470625	-469.287909	649.402222	516.595646	-399.752430	897.934096	104.328369	-326.132524	1104.123485	 70.287869	-350.582603	1082.549884	 62.062112	-254.831963	571.734915	657.315991	-381.617588	456.085709	484.112316	-384.867092	449.454083	516.853087	-470.368168	991.497874	1424.284890	-497.118929	917.129653	1416.838140	-104.030420	1004.309053	1414.216289	-269.473122	888.679362	1478.851398	-327.993012	830.594000	1298.550798	-59.596390	760.846439	1311.361799	-86.631288	769.153190	1234.293460	-36.649017	720.154384	1183.227877	-19.933404	928.157254	1305.898629	-567.319581	853.669406	1277.603135	-578.862042	907.586470	1215.777789	-581.176049	851.228850	1160.416766	-619.324425	792.966356	1170.391202	-554.584543	801.070462	1083.994523	-34.495119	860.703365	998.025843	-101.507336	826.691918	962.528776	-50.238161	940.572122	1082.004997	-563.021616	997.714391	1055.678835	-451.659856	1003.265101	1009.543409	-502.617091	989.736105	956.911390	-431.490370	920.916537	800.596920	-143.784469	693.856953	1169.836295	-97.341729	 -0.000000	 -0.000000	  0.000000	
357	  2.975000	953.134633	955.612830	-199.414047	818.208870	992.580732	-385.970353	793.240874	998.211530	-289.062406	1009.582759	560.331297	-212.519599	944.310174	763.153956	-496.381750	995.146183	653.743742	-482.768966	928.531554	546.742881	-473.826127	1063.744817	352.094815	-302.804897	1017.283925	297.702962	-239.150631	1012.597350	237.279720	-313.427316	830.627557	436.543403	-402.209185	775.452551	509.494325	-471.046937	677.709480	511.958617	-400.685424	858.731217	105.168556	-325.787265	1063.884679	 70.295887	-349.944422	1042.556637	 62.388421	-254.249260	596.673039	653.693556	-384.991739	485.363271	477.897584	-385.850615	481.285978	506.936934	-472.746738	987.669528	1420.373557	-497.561931	922.563590	1410.084319	-102.242230	1005.341919	1409.680753	-270.338487	889.379619	1475.271594	-325.691307	841.546599	1287.955704	-57.710554	769.784543	1300.259404	-78.509034	781.901117	1222.081929	-32.886076	735.009941	1169.952228	-14.377098	920.863411	1303.577387	-566.674112	845.624310	1275.460236	-575.751582	898.971162	1213.402345	-580.470393	840.376832	1158.565962	-617.984505	784.252006	1168.745572	-552.130770	819.290466	1074.790361	-33.172011	880.076827	993.761061	-103.265358	849.682604	956.110925	-51.105361	926.833719	1073.386163	-566.863840	985.155191	1039.600088	-458.871040	986.493503	995.150693	-511.669184	986.074517	952.972356	-433.342020	916.028462	798.066021	-143.451203	705.504365	1156.350010	-90.308029	 -0.000000	 -0.000000	  0.000000	
358	  2.983333	952.059684	951.611508	-200.073837	815.488005	991.199208	-385.883938	792.400323	996.453147	-289.488280	995.241401	554.299627	-212.406831	950.735535	761.458062	-495.587646	1010.495088	656.655520	-482.004720	951.018521	545.667996	-474.282048	1040.112973	343.179758	-301.553551	988.676172	292.056439	-238.426467	981.711299	232.026082	-312.976070	859.895417	434.292843	-400.791688	803.896850	503.764553	-472.196285	705.871077	506.108919	-401.554381	819.889585	105.561773	-325.095613	1024.474249	 69.897625	-349.293244	1003.279712	 62.065051	-253.618214	618.959431	647.735512	-388.639727	515.499832	467.456092	-386.768015	513.303095	492.911475	-474.652969	983.857066	1417.428909	-497.903251	927.933815	1405.086484	-101.236957	1006.233386	1406.046946	-271.423625	889.819396	1472.312493	-323.676370	852.342756	1279.839997	-56.203779	779.306236	1291.138576	-72.046941	795.312961	1212.196788	-29.736898	750.675264	1158.571240	 -9.538833	913.776501	1302.510074	-566.202660	837.833458	1275.337781	-571.881112	890.600937	1213.238355	-580.750765	829.727580	1158.681535	-617.096630	775.776965	1168.677307	-549.947764	838.248963	1067.909282	-32.850933	900.053201	991.802671	-105.590707	873.586457	952.098149	-52.679688	912.803732	1067.007589	-570.698386	971.341737	1025.692427	-466.109551	968.185567	982.995307	-520.514851	982.686633	950.760015	-434.722764	910.513712	795.184405	-144.090894	717.973950	1144.534529	-83.907530	  0.000000	  0.000000	 -0.000000	
